<svg width="194" height="17" viewBox="0 0 194 17" fill="none" xmlns="http://www.w3.org/2000/svg">
<path fill-rule="evenodd" clip-rule="evenodd" d="M156.848 11.8547C159.114 11.8547 160.359 10.9474 161.051 9.87306H168.432C166.749 13.9143 162.873 17 155.371 17C147.038 17 145.363 13.1944 146.712 8.5C148.061 3.80561 151.922 0 160.253 0C167.755 0 169.859 3.08568 169.219 7.12694H161.841C161.771 6.05261 161.053 5.14527 158.774 5.14527C155.549 5.14527 154.405 6.96365 153.963 8.5C153.521 10.0363 153.642 11.8547 156.848 11.8547ZM119.878 16.4915H126.745L124.112 0.215114H115.011L103.03 16.4915H109.899L111.791 13.9216H119.462L119.878 16.4915ZM114.408 10.3646L118.076 5.3808L118.883 10.3646H114.408ZM148.502 0.215114H141.537H134.668H127.7L126.17 5.54594H133.137L129.994 16.4915H136.863L140.006 5.54594H146.971L148.502 0.215114ZM186.308 0.209595L184.736 5.68143H177.648L179.22 0.209595H172.351L167.677 16.486H174.546L176.117 11.0123H183.205L181.634 16.486H188.503L193.177 0.209595H186.308ZM91.2252 8.6947L97.944 0.215114H106.707L102.033 16.4915H95.1645L97.7009 7.66305L90.7038 16.4915H87.2675L85.3415 7.66305L82.8069 16.4915H75.9379L80.6118 0.215114H89.3753L91.2252 8.6947ZM35.4245 16.4915H42.2917L39.6588 0.215114H30.5576L18.5767 16.4915H25.4457L27.3383 13.9216H35.0089L35.4245 16.4915ZM29.9546 10.3646L33.6229 5.3808L34.43 10.3646H29.9546ZM66.3698 16.4915H73.2388L77.9128 0.215114H71.0438L66.3698 16.4915ZM19.7146 0.215125H4.67398L0 16.4915H6.80594L7.79677 13.0384H16.0333C19.5532 13.0384 23.2307 10.168 24.2475 6.62584C25.2644 3.08557 23.2344 0.21327 19.7146 0.21327V0.215125ZM15.8069 8.09168H9.28116L10.1217 5.16372H16.6475C17.449 5.16372 17.9148 5.82056 17.6828 6.6277C17.4509 7.43484 16.6103 8.09168 15.8069 8.09168ZM62.1476 12.3352L64.6135 16.4915H56.8742L54.8258 13.0384H50.8087L49.8178 16.4915H43.0119L47.6859 0.215114H62.7265C66.2445 0.215114 68.2744 3.08741 67.2576 6.62769C66.5414 9.1159 64.5133 11.272 62.1476 12.3352ZM59.6575 5.16371H53.1317L52.2912 8.09167H58.8169C59.6204 8.09167 60.4609 7.43483 60.6929 6.62769C60.9248 5.82055 60.4591 5.16371 59.6575 5.16371Z" fill="black"/>
</svg>
